<svg width="14" height="12" viewBox="0 0 14 12" fill="none" xmlns="http://www.w3.org/2000/svg">
<path d="M13.7968 5.57505C14.04 5.79392 14.0643 6.1587 13.8697 6.40188C13.6509 6.64507 13.2861 6.66939 13.0429 6.47484L12.4593 5.96415V10.0545C12.4593 11.1488 11.5838 12 10.5138 12H3.50999C2.41565 12 1.5645 11.1488 1.5645 10.0545V5.96415L0.956533 6.47484C0.713347 6.66939 0.348567 6.64507 0.129699 6.40188C-0.0648497 6.1587 -0.0405311 5.79392 0.202655 5.57505L6.62278 0.127673C6.84164 -0.0425576 7.15779 -0.0425576 7.37665 0.127673L13.7968 5.57505ZM3.50999 10.8327H4.67729V7.56918C4.67729 7.03417 5.0907 6.59643 5.65003 6.59643H8.37372C8.90873 6.59643 9.34646 7.03417 9.34646 7.56918V10.8327H10.5138C10.9272 10.8327 11.292 10.4922 11.292 10.0545V4.96708L7.01187 1.3436L2.73179 4.96708V10.0545C2.73179 10.4922 3.07226 10.8327 3.50999 10.8327ZM5.84458 10.8327H8.17917V7.76373H5.84458V10.8327Z" fill="#5F5F5F"/>
</svg>
