<svg width="150" height="70" viewBox="0 0 150 70" fill="none" xmlns="http://www.w3.org/2000/svg">
<path d="M0 12.9921V62.1553L150 69.7059V0L0 12.9921Z" fill="#FF5101"/>
<path d="M49.6498 45.5521C44.6098 45.5521 41.6298 41.6425 41.6298 37.2156C41.6298 32.8186 44.5798 28.9488 49.6498 28.9488C54.6198 28.9488 57.5998 32.8584 57.5998 37.2156C57.6398 41.6425 54.6298 45.5521 49.6498 45.5521ZM49.6498 23.179C40.6798 23.179 35.3798 29.8839 35.3798 37.2156C35.3798 44.5772 40.6798 51.2822 49.6498 51.2822C58.5498 51.2822 63.8498 44.5772 63.8498 37.2156C63.8598 29.8939 58.5498 23.179 49.6498 23.179ZM35.8998 23.8654H17.5098V29.4363H23.5998V50.5957H29.8198V29.4363H35.8998V23.8654ZM75.8298 38.0612H72.0298V29.1378H75.8298C78.8698 29.1378 80.5798 30.7295 80.5798 33.5946C80.5498 36.4994 78.8498 38.0612 75.8298 38.0612ZM86.7298 33.505C86.7298 28.332 82.8998 23.8654 76.4898 23.8654H65.8498V50.5957H71.9998V43.2044H74.8798L79.6898 50.5957H86.7298L81.0698 42.0603C84.3798 40.598 86.7298 37.7329 86.7298 33.505ZM117.07 41.9708L120.31 30.6698L123.39 41.9708H117.07ZM98.5798 38.0612H94.7798V29.1378H98.5798C101.62 29.1378 103.33 30.7295 103.33 33.5946C103.33 36.4994 101.63 38.0612 98.5798 38.0612ZM123.65 23.8654H117.17L108.56 49.2329L103.81 42.0703C107.12 40.5681 109.47 37.7429 109.47 33.505C109.47 28.332 105.64 23.8654 99.2298 23.8654H88.5998V50.5957H94.7498V43.2044H97.6298L102.44 50.5957H114.45L115.6 46.9846H124.93L126.11 50.5957H132.92L123.65 23.8654Z" fill="white"/>
</svg>
